<?xml version="1.0" encoding="UTF-8"?>
<svg version="1.1" xmlns="http://www.w3.org/2000/svg" width="1234" height="303">
<path d="M0 0 C134.05025126 0 134.05025126 0 153 18 C162.53813511 28.41461239 169.68795487 39.52683335 174 53 C174.32097656 53.98613281 174.64195312 54.97226563 174.97265625 55.98828125 C180.53007897 76.7446089 178.52095981 99.35874218 167.91796875 117.96484375 C156.28115513 136.37992356 140.95768213 148.27345647 119.83203125 153.203125 C111.59180994 154.91668784 103.59735001 155.2810196 95.19140625 155.53515625 C93.8561852 155.57823154 92.52097513 155.62164824 91.18577576 155.66539001 C87.69249477 155.77892273 84.19908525 155.8878528 80.70562744 155.99578857 C77.13243751 156.10701509 73.55939026 156.22264424 69.98632812 156.33789062 C62.991018 156.56287568 55.99556205 156.78299321 49 157 C48.97938507 157.9675119 48.95877014 158.9350238 48.93753052 159.93185425 C48.74139516 169.08240471 48.5358695 178.23270332 48.32132149 187.38284111 C48.21133684 192.08619331 48.1045775 196.7895712 48.00537109 201.49316406 C47.90937883 206.03859435 47.80467666 210.58375053 47.6941185 215.12884903 C47.6535881 216.85656974 47.61611318 218.58436512 47.58185196 220.31222153 C47.10908479 243.89091521 47.10908479 243.89091521 42 249 C28.14 249 14.28 249 0 249 C0 166.83 0 84.66 0 0 Z M46 41 C46 65.75 46 90.5 46 116 C52.65118821 116.60465347 59.07093947 117.16347873 65.7109375 117.203125 C66.48579498 117.20882507 67.26065247 117.21452515 68.05899048 117.22039795 C69.68058958 117.22974293 71.30220677 117.23633937 72.92382812 117.24023438 C75.36362635 117.24995469 77.80258512 117.2810846 80.2421875 117.3125 C95.91559461 117.4186923 111.38793835 115.3003703 123.3125 104.12109375 C129.88237991 95.8631197 131.50528979 81.68765894 130.734375 71.484375 C128.33881189 60.11819258 121.69091259 50.8957897 112.4375 44.125 C93.23901183 35.26415931 65.1502692 40.23398923 46 41 Z " fill="#DEE4E0" transform="translate(16,33)"/>
<path d="M0 0 C15.18 0 30.36 0 46 0 C46 29.7 46 59.4 46 90 C53.92 84.72 61.84 79.44 70 74 C92.80928611 68.73631859 118.63874407 65.90075397 140.0390625 77.76953125 C142.55168603 79.34617749 144.86382958 80.93503526 147 83 C147 83.66 147 84.32 147 85 C147.66 85 148.32 85 149 85 C149 85.66 149 86.32 149 87 C149.66 87 150.32 87 151 87 C159.70126283 97.47632045 165.08973958 109.38565232 168.3125 122.5625 C168.55190308 123.53364746 168.55190308 123.53364746 168.79614258 124.52441406 C171.94656866 138.62913778 171.17878765 153.48810027 171.203125 167.84375 C171.20736607 169.53758568 171.20736607 169.53758568 171.21169281 171.26564026 C171.22658998 177.2236453 171.23588329 183.18162665 171.24023438 189.13964844 C171.24575261 195.2875787 171.26987755 201.43529124 171.29820633 207.58315277 C171.31680439 212.32373709 171.32203646 217.06426814 171.32357025 221.80488586 C171.32659596 224.07271027 171.33462172 226.34053375 171.34775543 228.60832214 C171.36478089 231.76965274 171.36294588 234.93043924 171.35644531 238.09179688 C171.3656601 239.02587372 171.37487488 239.95995056 171.3843689 240.92233276 C171.34998825 246.25096065 170.96297341 250.03702659 167 254 C165.64905018 254.09268999 164.29332909 254.11747326 162.93920898 254.11352539 C162.07839218 254.11344986 161.21757538 254.11337433 160.33067322 254.11329651 C159.39526199 254.10813522 158.45985077 254.10297394 157.49609375 254.09765625 C156.54307877 254.0962413 155.59006378 254.09482635 154.60816956 254.09336853 C151.55124835 254.08775152 148.49439923 254.07519616 145.4375 254.0625 C143.37044376 254.05748719 141.30338638 254.05292391 139.23632812 254.04882812 C134.15752412 254.03777656 129.0787743 254.02050055 124 254 C123.96574669 252.53565773 123.96574669 252.53565773 123.93080139 251.04173279 C123.71276446 241.73351858 123.49226852 232.42536526 123.26950932 223.11726284 C123.15512774 218.33463139 123.04154204 213.5519841 122.92993164 208.76928711 C122.36611607 183.55025781 122.36611607 183.55025781 121.515625 158.33984375 C121.48304092 157.47161484 121.45045685 156.60338593 121.41688538 155.70884705 C120.8232131 142.42917577 117.49903655 130.98073209 110 120 C110 119.34 110 118.68 110 118 C108.41701974 117.5196682 106.83360022 117.04078388 105.25 116.5625 C104.36828125 116.29566406 103.4865625 116.02882813 102.578125 115.75390625 C92.71748144 112.87041503 79.70391009 111.89764763 70.234375 116.55078125 C61.99554789 121.89449604 56.43211283 128.29720891 52 137 C51.401875 138.051875 50.80375 139.10375 50.1875 140.1875 C46.25847541 152.80173683 47.7172565 168.13455148 47.46484375 181.24609375 C47.42173356 183.35458483 47.37831695 185.46306967 47.33460999 187.57154846 C47.22143299 193.07042724 47.11236671 198.56937984 47.00421143 204.06835938 C46.87303192 210.69334463 46.7366495 217.31822466 46.60115814 223.94312286 C46.39682672 233.96200765 46.19902734 243.98100213 46 254 C30.82 254 15.64 254 0 254 C0 170.18 0 86.36 0 0 Z " fill="#DEE4E0" transform="translate(209,28)"/>
<path d="M0 0 C13.59551734 11.00769835 21.90807824 25.24913706 27.41748047 41.77734375 C27.41748047 56.95734375 27.41748047 72.13734375 27.41748047 87.77734375 C-15.15251953 88.10734375 -57.72251953 88.43734375 -101.58251953 88.77734375 C-92.86423781 110.18357532 -92.86423781 110.18357532 -76.58251953 124.77734375 C-62.42259963 129.64887583 -48.83748739 128.56684932 -35.20751953 122.65234375 C-30.65489295 120.25929645 -28.40863491 117.31140392 -25.93408203 112.86328125 C-23.51535048 109.13032562 -20.90689542 107.70389161 -16.68408203 106.5703125 C-10.45591806 105.340231 -4.26260281 105.76977129 2.04248047 106.08984375 C3.23099609 106.13818359 4.41951172 106.18652344 5.64404297 106.23632812 C11.29441337 106.4854237 16.84075876 106.82063343 22.41748047 107.77734375 C20.43866344 127.30514335 13.54035884 140.65140333 -1.58251953 153.77734375 C-16.01638874 164.50861173 -32.47292925 169.86914524 -50.43017578 169.98046875 C-51.16392929 169.98616882 -51.8976828 169.9918689 -52.65367126 169.9977417 C-54.20082179 170.00713596 -55.74799182 170.01370333 -57.29516602 170.01757812 C-59.61463208 170.02721746 -61.93318502 170.05826575 -64.25244141 170.08984375 C-88.22142123 170.26196683 -106.69648998 162.40154944 -124.30908203 146.0390625 C-142.89473166 127.54921519 -148.74228085 101.91613019 -148.87768555 76.52636719 C-148.8891319 75.04124366 -148.90946558 73.55615884 -148.93920898 72.07128906 C-149.21835576 58.06716606 -147.27085115 44.87142722 -141.02001953 32.15234375 C-140.68268799 31.45415527 -140.34535645 30.7559668 -139.99780273 30.03662109 C-128.75074666 7.79508151 -109.0636441 -7.97584842 -86.01220703 -16.55078125 C-57.3657342 -25.18729747 -23.54185805 -18.18846423 0 0 Z M-91.45751953 34.65234375 C-97.31787585 41.95014596 -98.6037208 46.98935642 -99.58251953 56.77734375 C-72.85251953 56.77734375 -46.12251953 56.77734375 -18.58251953 56.77734375 C-20.87272546 41.8910052 -23.09717655 35.0742188 -34.58251953 25.77734375 C-52.54133178 15.74463486 -77.49668864 19.53552049 -91.45751953 34.65234375 Z " fill="#DEE4E0" transform="translate(740.58251953125,116.22265625)"/>
<path d="M0 0 C2.91342146 2.28209529 5.72677494 4.66443294 8.50366211 7.11010742 C9.34928711 7.85389648 10.19491211 8.59768555 11.06616211 9.36401367 C27.66910851 25.0157496 38.65456789 48.18345613 39.6262207 70.98632812 C40.14273473 90.81264082 38.91096975 108.00831755 30.50366211 126.11010742 C30.2295752 126.73127441 29.95548828 127.35244141 29.6730957 127.99243164 C19.52756762 150.73927999 -0.94851025 163.21582544 -22.8347168 173.17407227 C-32.76765351 176.66727346 -45.64854579 175.35471962 -56.12866211 175.40527344 C-57.79411269 175.41685493 -59.45952442 175.4374028 -61.12475586 175.46679688 C-75.58207413 175.72026014 -86.45384227 173.64251143 -98.80883789 165.67260742 C-99.55456055 165.20790039 -100.3002832 164.74319336 -101.06860352 164.2644043 C-103.22990536 162.90625055 -105.36649682 161.51698423 -107.49633789 160.11010742 C-108.12596436 159.70179688 -108.75559082 159.29348633 -109.40429688 158.87280273 C-113.66185295 155.99853259 -116.81871853 152.80659269 -119.93383789 148.73510742 C-120.40192871 148.12715332 -120.87001953 147.51919922 -121.35229492 146.89282227 C-135.77085655 127.6467272 -140.88951772 106.08651494 -140.81201172 82.20605469 C-140.80884441 80.17678307 -140.83246444 78.14896717 -140.85766602 76.11987305 C-140.98300689 50.15981934 -131.2888894 26.20728678 -113.13500977 7.64233398 C-100.9091011 -3.78940064 -84.56558888 -9.51690663 -68.49633789 -12.88989258 C-67.59270508 -13.08325195 -66.68907227 -13.27661133 -65.75805664 -13.47583008 C-43.42946664 -16.31035767 -18.47592408 -13.82807827 0 0 Z M-78.49633789 39.11010742 C-79.62749023 40.07303711 -79.62749023 40.07303711 -80.78149414 41.05541992 C-89.65825237 49.25190322 -93.74672945 60.35365522 -94.76757812 72.27856445 C-94.86028184 75.45704768 -94.85757078 78.61827342 -94.80883789 81.79760742 C-94.81206055 82.86043945 -94.8152832 83.92327148 -94.81860352 85.01831055 C-94.72098976 99.4030282 -91.0469931 111.20349499 -81.49633789 122.11010742 C-80.61848633 123.1987207 -80.61848633 123.1987207 -79.72290039 124.30932617 C-73.10361329 131.8642509 -63.22525358 134.49351489 -53.39086914 135.27807617 C-40.87331397 135.39550164 -30.77677528 131.77184899 -21.49633789 123.11010742 C-21.49633789 122.45010742 -21.49633789 121.79010742 -21.49633789 121.11010742 C-20.83633789 121.11010742 -20.17633789 121.11010742 -19.49633789 121.11010742 C-7.46463455 106.70105547 -6.13072835 90.18319834 -7.49633789 72.11010742 C-9.2585899 58.59440069 -12.9930789 46.38717949 -23.49633789 37.11010742 C-42.31087195 23.84424726 -60.75450995 23.99772356 -78.49633789 39.11010742 Z " fill="#DEE4E0" transform="translate(538.496337890625,110.889892578125)"/>
<path d="M0 0 C14.22771336 11.62841958 23.89017288 28.91988073 27 47 C27.0873509 48.79103438 27.12625138 50.58482765 27.12698364 52.37799072 C27.12980347 53.44360229 27.13262329 54.50921387 27.13552856 55.6071167 C27.13249222 57.34508514 27.13249222 57.34508514 27.12939453 59.11816406 C27.13202301 60.96027466 27.13202301 60.96027466 27.13470459 62.83959961 C27.13834717 66.1987894 27.13750013 69.55791746 27.1343255 72.91710377 C27.1317913 76.43202102 27.13414219 79.94693567 27.13571167 83.46185303 C27.1375293 89.35966464 27.1351367 95.25746372 27.13037109 101.15527344 C27.12491916 107.98147146 27.1266995 114.80763967 27.1321975 121.63383698 C27.13672817 127.49293087 27.13737971 133.35201576 27.13475883 139.21111083 C27.1331971 142.71154886 27.13299966 146.21197284 27.13629532 149.71240997 C27.13970727 153.60808992 27.13498512 157.50373611 27.12939453 161.39941406 C27.13141876 162.56615662 27.13344299 163.73289917 27.13552856 164.93499756 C27.13270874 165.98932983 27.12988892 167.04366211 27.12698364 168.12994385 C27.1264181 169.51257101 27.1264181 169.51257101 27.12584114 170.92313004 C27 173 27 173 26 174 C24.55710213 174.09295815 23.10970215 174.11746513 21.66381836 174.11352539 C20.7429393 174.11344986 19.82206024 174.11337433 18.87327576 174.11329651 C17.87224319 174.10813522 16.87121063 174.10297394 15.83984375 174.09765625 C14.82024063 174.0962413 13.80063751 174.09482635 12.75013733 174.09336853 C9.47922893 174.08775097 6.20838787 174.0751955 2.9375 174.0625 C0.72591244 174.05748726 -1.48567618 174.05292396 -3.69726562 174.04882812 C-9.13153357 174.03777584 -14.56576197 174.02102063 -20 174 C-20.01839432 172.71786118 -20.03678864 171.43572235 -20.05574036 170.11473083 C-20.2316703 157.97833021 -20.42225801 145.84223458 -20.62686634 133.70628262 C-20.73157256 127.46841701 -20.83127506 121.23055829 -20.91918945 114.99243164 C-21.00436489 108.96213705 -21.10314486 102.93219935 -21.21100426 96.90226936 C-21.24964635 94.61209701 -21.2835461 92.32183912 -21.31241798 90.03152275 C-21.11311919 62.18340888 -21.11311919 62.18340888 -33.73046875 38.30859375 C-40.26200943 34.25814175 -48.38584115 33.63133532 -55.875 33.6875 C-57.05908447 33.69595947 -57.05908447 33.69595947 -58.26708984 33.70458984 C-67.93372144 33.90543942 -76.03306228 35.92818365 -83 43 C-92.30488253 54.64692779 -93.08270421 70.22077217 -93.23364258 84.57128906 C-93.24687057 85.48140747 -93.26009857 86.39152588 -93.27372742 87.32922363 C-93.30209506 89.28851279 -93.32875632 91.24782727 -93.35386086 93.20716095 C-93.40930473 97.37660904 -93.4798662 101.54576026 -93.54944134 105.71499252 C-93.67849666 113.46186273 -93.80113409 121.20871788 -93.89868164 128.95605469 C-93.96731928 134.36138407 -94.05491052 139.76611833 -94.15506554 145.17095184 C-94.18958285 147.22653409 -94.21703137 149.28224774 -94.23725319 151.33802032 C-94.26627331 154.2080637 -94.31943915 157.0767217 -94.37817383 159.94628906 C-94.38092316 160.7931427 -94.38367249 161.63999634 -94.38650513 162.51251221 C-94.40738693 163.29730957 -94.42826874 164.08210693 -94.44978333 164.89068604 C-94.45954602 165.56757603 -94.46930872 166.24446602 -94.47936726 166.94186783 C-95 169 -95 169 -99 174 C-113.19 174 -127.38 174 -142 174 C-142 114.6 -142 55.2 -142 -6 C-129.46 -6 -116.92 -6 -104 -6 C-101.525 1.425 -101.525 1.425 -99 9 C-95.13681146 9 -94.09211957 7.78200736 -91.0625 5.4375 C-64.8635582 -14.01375114 -28.29982993 -18.31783546 0 0 Z " fill="#DEE4E0" transform="translate(932,108)"/>
<path d="M0 0 C16.62321925 12.30959907 29.62471502 36.73614641 38.02685547 55.2644043 C39.44418697 57.79220401 41.32164797 58.15420462 44 59 C44.38929687 58.05382812 44.77859375 57.10765625 45.1796875 56.1328125 C52.92576892 37.66938804 65.28597933 8.52715337 84.79296875 -0.2578125 C88.73480263 -1.17005177 92.52818671 -1.50332203 96.5625 -1.6875 C97.35245361 -1.72657471 98.14240723 -1.76564941 98.95629883 -1.8059082 C105.6968715 -2.08645254 112.30555379 -1.90413498 119 -1 C119.7528125 -0.89945312 120.505625 -0.79890625 121.28125 -0.6953125 C123.1875 -0.3125 123.1875 -0.3125 126 1 C128.08234866 4.98362353 128.29119092 8.56493828 128 13 C126.92578125 15.359375 126.92578125 15.359375 125.3125 17.75 C124.67570312 18.69746094 124.03890625 19.64492187 123.3828125 20.62109375 C118.85884646 27.08081416 114.22139944 33.45904055 109.57519531 39.83105469 C107.38206093 42.8508634 105.221914 45.89354469 103.0625 48.9375 C99.04400968 54.58990949 94.93440801 60.17269556 90.8125 65.75 C89.05403759 68.13567717 87.29655421 70.52206848 85.54003906 72.90917969 C84.59861286 74.18729858 83.65563569 75.46427921 82.70996094 76.73925781 C81.69410264 78.11168149 80.69007803 79.49284511 79.6875 80.875 C79.17574219 81.57367188 78.66398437 82.27234375 78.13671875 82.9921875 C76.4417295 85.98608603 75.78743264 88.61565506 76.3125 92.03515625 C80.26252959 103.68325488 87.45608955 113.14899196 94.83203125 122.8046875 C97.95162901 126.90243996 100.92648323 131.09063713 103.875 135.3125 C108.89414518 142.48963513 114.05344158 149.55444471 119.28076172 156.58129883 C120.37656648 158.05763979 121.46721767 159.53782517 122.55175781 161.02246094 C123.81365193 162.74554629 125.1000875 164.45060557 126.390625 166.15234375 C128.28836679 169.51024124 128.41988804 171.55251918 128.25 175.375 C128.21390625 176.43460938 128.1778125 177.49421875 128.140625 178.5859375 C128.09421875 179.38257813 128.0478125 180.17921875 128 181 C89.17504931 187.2111111 89.17504931 187.2111111 78.21264648 179.79003906 C74.00098771 176.35590852 70.82086885 172.49897604 67.8125 168 C67.35109619 167.32428955 66.88969238 166.6485791 66.41430664 165.95239258 C62.5038812 160.07920026 59.21957098 153.92697192 55.9375 147.6875 C49.14233859 134.4478489 49.14233859 134.4478489 38 125 C37.89220215 125.55147705 37.7844043 126.1029541 37.67333984 126.67114258 C36.86645769 129.46187822 35.64036967 131.72261375 34.2265625 134.26171875 C33.65413818 135.29071289 33.08171387 136.31970703 32.49194336 137.37988281 C31.87585205 138.47139648 31.25976074 139.56291016 30.625 140.6875 C29.9966626 141.80350586 29.3683252 142.91951172 28.72094727 144.06933594 C24.94139233 150.7257941 21.07388632 157.30859897 16.9375 163.75 C16.50969238 164.42119873 16.08188477 165.09239746 15.64111328 165.78393555 C10.1508375 174.15135821 2.90441286 181.43336707 -7 184 C-10.6975117 184.41361398 -14.34509823 184.42686641 -18.0625 184.375 C-19.06804932 184.36919922 -20.07359863 184.36339844 -21.10961914 184.35742188 C-29.36023818 184.21497653 -37.02701103 183.11605395 -45 181 C-44.60214809 164.65190346 -35.16491753 152.76623891 -26 140 C-25.17024658 138.84177734 -25.17024658 138.84177734 -24.32373047 137.66015625 C-21.62817531 133.90451525 -18.91939819 130.1586462 -16.203125 126.41796875 C-11.05965068 119.33081245 -5.96141161 112.21611145 -1 105 C-0.56155762 104.36594238 -0.12311523 103.73188477 0.32861328 103.07861328 C1.53359935 101.31633855 2.70920955 99.53837271 3.875 97.75 C4.53242187 96.75484375 5.18984375 95.7596875 5.8671875 94.734375 C7.30736159 92.08445214 7.30736159 92.08445214 6.25073242 89.60546875 C5.03851729 87.08023747 3.71409375 84.87937678 2.12109375 82.578125 C1.24698853 81.30642456 1.24698853 81.30642456 0.35522461 80.0090332 C-0.27762451 79.09855225 -0.91047363 78.18807129 -1.5625 77.25 C-2.92752769 75.26983749 -4.29209326 73.28935636 -5.65625 71.30859375 C-6.36910156 70.27589355 -7.08195312 69.24319336 -7.81640625 68.17919922 C-9.98816413 65.01723241 -12.13833051 61.84172571 -14.28125 58.66015625 C-21.47297351 47.99144922 -28.71238618 37.4064598 -36.53540039 27.18676758 C-41.44680873 20.69113012 -45.63372429 14.94193429 -45.25 6.5 C-45.21390625 5.4584375 -45.1778125 4.416875 -45.140625 3.34375 C-45.09421875 2.5703125 -45.0478125 1.796875 -45 1 C-43.10454608 0.51933465 -41.20861961 0.04053257 -39.3125 -0.4375 C-38.25675781 -0.70433594 -37.20101563 -0.97117187 -36.11328125 -1.24609375 C-34.57220703 -1.61927734 -34.57220703 -1.61927734 -33 -2 C-31.81857422 -2.28810547 -31.81857422 -2.28810547 -30.61328125 -2.58203125 C-21.13696547 -4.09767518 -8.67709691 -4.44838513 0 0 Z " fill="#DEE4E0" transform="translate(1094,101)"/>
<path d="M0 0 C14.52 0 29.04 0 44 0 C47.04672873 5.07788122 47.37670906 6.41142798 47.38768005 12.02148438 C47.39306559 12.71643257 47.39845113 13.41138077 47.40399987 14.127388 C47.41827632 16.44969023 47.41117682 18.7714222 47.40405273 21.09375 C47.40975643 22.76123512 47.41672069 24.42871634 47.42485046 26.09619141 C47.44279573 30.62093642 47.44161109 35.14548765 47.43590808 39.67025757 C47.43281862 43.44775033 47.43890587 47.22520573 47.44494683 51.00269318 C47.45899454 59.91328537 47.45742833 68.82378169 47.44604492 77.734375 C47.43455931 86.92817243 47.44864623 96.1216783 47.4754414 105.31543732 C47.49758725 113.20941473 47.50423842 121.10330055 47.49836498 128.99730682 C47.49499203 133.71189862 47.49743309 138.42630345 47.51461601 143.14086914 C47.53006568 147.5732904 47.52615179 152.00527906 47.50731087 156.43768311 C47.50361968 158.06426917 47.5067489 159.69088715 47.51719666 161.31744385 C47.53037272 163.5383016 47.51889132 165.75771995 47.50120544 167.97851562 C47.50099616 169.22105103 47.50078688 170.46358643 47.50057125 171.74377441 C47 175 47 175 43 180 C28.81 180 14.62 180 0 180 C0 120.6 0 61.2 0 0 Z " fill="#DEE4E0" transform="translate(986,102)"/>
<path d="M0 0 C0.79245117 0.00491455 1.58490234 0.0098291 2.40136719 0.01489258 C11.47806008 0.19616615 18.6955113 1.66217011 25.1875 8.3125 C31.16544208 15.93952955 29.80347014 28.63241006 28.9609375 37.76953125 C28.74413203 39.29026679 28.47492522 40.80351759 28.1875 42.3125 C27.5275 42.3125 26.8675 42.3125 26.1875 42.3125 C25.98125 42.869375 25.775 43.42625 25.5625 44 C22.30133196 49.48469171 17.00475019 52.42044744 11.1640625 54.58203125 C1.75812039 56.89031363 -7.49136417 56.31571458 -15.8125 51.3125 C-16.864375 50.796875 -17.91625 50.28125 -19 49.75 C-25.14107972 44.42773091 -28.01676936 37.70603506 -28.75 29.6875 C-28.8103336 27.56325451 -28.83410094 25.43749234 -28.8125 23.3125 C-28.8228125 22.47332031 -28.833125 21.63414063 -28.84375 20.76953125 C-28.58934792 14.61088087 -26.05176536 10.6805281 -21.8125 6.3125 C-15.20362266 0.96915237 -8.23154105 -0.06019249 0 0 Z " fill="#DEE4E0" transform="translate(1007.8125,25.6875)"/>
</svg>
